<svg xmlns="http://www.w3.org/2000/svg" xmlns:xlink="http://www.w3.org/1999/xlink" version="1.2" width="203.20mm" height="44.45mm" viewBox="0.0000 -0.0000 115.6320 25.2945">
<style type="text/css">
<![CDATA[
tspan { white-space: pre; }
]]>
</style>
<g transform="translate(39.4530, 8.7935)">
<rect x="0.0000" y="-2.0000" width="0.1900" height="4.0000" ry="0.0000" fill="currentColor"/>
</g>
<g transform="translate(5.6906, 10.7935)">
<line stroke-linejoin="round" stroke-linecap="round" stroke-width="0.1000" stroke="currentColor" x1="0.0500" y1="0" x2="104.2009" y2="0"/>
</g>
<g transform="translate(5.6906, 9.7935)">
<line stroke-linejoin="round" stroke-linecap="round" stroke-width="0.1000" stroke="currentColor" x1="0.0500" y1="0" x2="104.2009" y2="0"/>
</g>
<g transform="translate(5.6906, 8.7935)">
<line stroke-linejoin="round" stroke-linecap="round" stroke-width="0.1000" stroke="currentColor" x1="0.0500" y1="0" x2="104.2009" y2="0"/>
</g>
<g transform="translate(5.6906, 7.7935)">
<line stroke-linejoin="round" stroke-linecap="round" stroke-width="0.1000" stroke="currentColor" x1="0.0500" y1="0" x2="104.2009" y2="0"/>
</g>
<g transform="translate(5.6906, 6.7935)">
<line stroke-linejoin="round" stroke-linecap="round" stroke-width="0.1000" stroke="currentColor" x1="0.0500" y1="0" x2="104.2009" y2="0"/>
</g>
<g transform="translate(108.1015, 8.2935)">
<path transform="scale(0.0040, -0.0040)" d="M0 0c0 31 25 56 56 56s56 -25 56 -56s-25 -56 -56 -56s-56 25 -56 56z" fill="currentColor"/>
</g>
<g transform="translate(108.1015, 9.2935)">
<path transform="scale(0.0040, -0.0040)" d="M0 0c0 31 25 56 56 56s56 -25 56 -56s-25 -56 -56 -56s-56 25 -56 56z" fill="currentColor"/>
</g>
<g transform="translate(109.3414, 8.7935)">
<rect x="0.0000" y="-2.0000" width="0.6000" height="4.0000" ry="0.0000" fill="currentColor"/>
</g>
<g transform="translate(108.8514, 8.7935)">
<rect x="0.0000" y="-2.0000" width="0.1900" height="4.0000" ry="0.0000" fill="currentColor"/>
</g>
<g transform="translate(88.1602, 8.7935)">
<rect x="0.0000" y="-2.0000" width="0.1900" height="4.0000" ry="0.0000" fill="currentColor"/>
</g>
<g transform="translate(65.5206, 8.7935)">
<rect x="0.0000" y="-2.0000" width="0.1900" height="4.0000" ry="0.0000" fill="currentColor"/>
</g>
<g transform="translate(5.6906, 11.7935)">
<rect x="53.3784" y="-0.1000" width="1.9563" height="0.2000" ry="0.1000" fill="currentColor"/>
</g>
<g transform="translate(5.6906, 5.7935)">
<rect x="47.3528" y="-0.1000" width="1.9563" height="0.2000" ry="0.1000" fill="currentColor"/>
</g>
<g transform="translate(5.6906, 11.7935)">
<rect x="47.3528" y="-0.1000" width="1.9563" height="0.2000" ry="0.1000" fill="currentColor"/>
</g>
<g transform="translate(5.6906, 11.7935)">
<rect x="41.3272" y="-0.1000" width="1.9563" height="0.2000" ry="0.1000" fill="currentColor"/>
</g>
<g transform="translate(5.6906, 11.7935)">
<rect x="35.3016" y="-0.1000" width="1.9563" height="0.2000" ry="0.1000" fill="currentColor"/>
</g>
<g transform="translate(5.6906, 11.7935)">
<rect x="27.3108" y="-0.1000" width="1.9563" height="0.2000" ry="0.1000" fill="currentColor"/>
</g>
<g transform="translate(5.6906, 11.7935)">
<rect x="21.2852" y="-0.1000" width="1.9563" height="0.2000" ry="0.1000" fill="currentColor"/>
</g>
<g transform="translate(5.6906, 11.7935)">
<rect x="15.2596" y="-0.1000" width="1.9563" height="0.2000" ry="0.1000" fill="currentColor"/>
</g>
<g transform="translate(5.6906, 11.7935)">
<rect x="9.2340" y="-0.1000" width="1.9563" height="0.2000" ry="0.1000" fill="currentColor"/>
</g>
<g transform="translate(50.5316, 10.7935)">
<path transform="scale(0.0040, -0.0040)" d="M218 136c66 0 108 -36 108 -89c0 -89 -113 -183 -218 -183c-66 0 -108 36 -108 89c0 89 113 183 218 183z" fill="currentColor"/>
</g>
<g transform="translate(6.4906, 9.7935)">
<path transform="scale(0.0040, -0.0040)" d="M266 -635h-6c-108 0 -195 88 -195 197c0 58 53 103 112 103c54 0 95 -47 95 -103c0 -52 -43 -95 -95 -95c-11 0 -21 2 -31 6c26 -39 68 -65 117 -65h4zM461 -203c68 24 113 90 113 164c0 90 -66 179 -173 190c19 -89 48 -242 60 -354zM74 28c0 -145 141 -247 264 -247
c1 0 47 0 82 6c-7 64 -29 203 -63 364c-79 -8 -124 -61 -124 -119c0 -44 25 -91 81 -123c5 -5 7 -10 7 -15c0 -11 -10 -22 -22 -22c-15 0 -126 62 -126 187c0 88 58 174 160 197c-14 58 -29 117 -46 175c-107 -121 -213 -243 -213 -403zM250 553c-29 96 -52 170 -52 346
c0 115 55 224 149 292c6 5 14 5 20 0c68 -80 133 -245 133 -358c0 -143 -86 -255 -180 -364c21 -68 39 -138 56 -207c2 0 7 1 13 1c155 0 256 -128 256 -261c0 -113 -74 -212 -180 -246c3 -35 5 -70 5 -105c0 -19 -1 -39 -2 -58c-7 -119 -88 -225 -202 -228l1 43
c93 2 153 92 159 191c1 18 2 37 2 55c0 31 -1 61 -4 92c-5 -1 -44 -8 -89 -8c-193 0 -333 180 -333 374c0 177 131 306 248 441zM428 916c0 34 1 66 -20 129c-99 -48 -162 -149 -162 -259c0 -52 12 -115 36 -194c80 97 146 198 146 324z" fill="currentColor"/>
</g>
<g transform="translate(10.1106, 8.7935)">
<path transform="scale(0.0040, -0.0040)" d="M27 41l-1 -66v-11c0 -22 1 -44 4 -66c45 38 93 80 93 139c0 33 -14 67 -43 67c-31 0 -52 -30 -53 -63zM-15 -138l-12 595c8 5 18 8 27 8s19 -3 27 -8l-7 -345c25 21 58 34 91 34c52 0 89 -48 89 -102c0 -80 -86 -117 -147 -169c-15 -13 -24 -38 -45 -38
c-13 0 -23 11 -23 25z" fill="currentColor"/>
</g>
<g transform="translate(11.0306, 7.2935)">
<path transform="scale(0.0040, -0.0040)" d="M27 41l-1 -66v-11c0 -22 1 -44 4 -66c45 38 93 80 93 139c0 33 -14 67 -43 67c-31 0 -52 -30 -53 -63zM-15 -138l-12 595c8 5 18 8 27 8s19 -3 27 -8l-7 -345c25 21 58 34 91 34c52 0 89 -48 89 -102c0 -80 -86 -117 -147 -169c-15 -13 -24 -38 -45 -38
c-13 0 -23 11 -23 25z" fill="currentColor"/>
</g>
<g transform="translate(11.9506, 9.2935)">
<path transform="scale(0.0040, -0.0040)" d="M27 41l-1 -66v-11c0 -22 1 -44 4 -66c45 38 93 80 93 139c0 33 -14 67 -43 67c-31 0 -52 -30 -53 -63zM-15 -138l-12 595c8 5 18 8 27 8s19 -3 27 -8l-7 -345c25 21 58 34 91 34c52 0 89 -48 89 -102c0 -80 -86 -117 -147 -169c-15 -13 -24 -38 -45 -38
c-13 0 -23 11 -23 25z" fill="currentColor"/>
</g>
<g transform="translate(76.6090, 9.9835)">
<polygon stroke-linejoin="round" stroke-linecap="round" stroke-width="0.0800" fill="currentColor" stroke="currentColor" points="8.8034 -0.2000 8.8034 0.2000 0.0400 0.2000 0.0400 -0.2000"/>
</g>
<g transform="translate(76.6090, 10.7935)">
<polygon stroke-linejoin="round" stroke-linecap="round" stroke-width="0.0800" fill="currentColor" stroke="currentColor" points="8.8034 -0.2000 8.8034 0.2000 0.0400 0.2000 0.0400 -0.2000"/>
</g>
<g transform="translate(15.2506, 9.2935)">
<path transform="scale(0.0040, -0.0040)" d="M218 136c66 0 108 -36 108 -89c0 -89 -113 -183 -218 -183c-66 0 -108 36 -108 89c0 89 113 183 218 183z" fill="currentColor"/>
</g>
<g transform="translate(15.2506, 3.7738)">
<text font-family="serif" font-style="italic" font-size="2.2000" text-anchor="start" fill="currentColor">
<tspan>first violins</tspan>
</text>
</g>
<g transform="translate(13.2506, 5.5595)">
<path transform="scale(0.0040, -0.0040)" d="M161 32c78 0 97 176 97 178c0 18 -7 33 -25 33c-61 0 -102 -124 -102 -173c0 -22 8 -38 30 -38zM-53 141c0 2 51 151 134 151c35 0 59 -21 66 -52c29 31 67 52 103 52c69 0 107 -49 107 -114c0 -118 -105 -186 -159 -186c-53 0 -70 20 -84 20c-7 0 -14 -3 -16 -9l-29 -86
c-1 -2 -1 -5 -1 -7c0 -37 57 -18 57 -42c0 -7 -4 -14 -13 -14c-3 0 -50 5 -116 5s-112 -5 -115 -5c-9 0 -14 7 -14 14c0 31 87 -1 102 41l102 300c2 7 4 14 4 20c0 8 -2 14 -11 14c-33 0 -63 -60 -79 -97c-5 -12 -15 -17 -24 -17c-8 0 -14 4 -14 12z" fill="currentColor"/>
</g>
<g transform="translate(16.4898, 5.3435)">
<path transform="scale(0.0040, -0.0040)" d="M-50 0c0 28 22 50 50 50s50 -22 50 -50s-22 -50 -50 -50s-50 22 -50 50z" fill="currentColor"/>
</g>
<g transform="translate(15.2506, 11.7935)">
<path transform="scale(0.0040, -0.0040)" d="M218 136c66 0 108 -36 108 -89c0 -89 -113 -183 -218 -183c-66 0 -108 36 -108 89c0 89 113 183 218 183z" fill="currentColor"/>
</g>
<g transform="translate(15.2506, 17.4279)">
<text font-family="serif" font-style="italic" font-size="2.2000" text-anchor="start" fill="currentColor">
<tspan>second violins</tspan>
</text>
</g>
<g transform="translate(13.2506, 12.6115)">
<path transform="scale(0.0040, -0.0040)" d="M161 32c78 0 97 176 97 178c0 18 -7 33 -25 33c-61 0 -102 -124 -102 -173c0 -22 8 -38 30 -38zM-53 141c0 2 51 151 134 151c35 0 59 -21 66 -52c29 31 67 52 103 52c69 0 107 -49 107 -114c0 -118 -105 -186 -159 -186c-53 0 -70 20 -84 20c-7 0 -14 -3 -16 -9l-29 -86
c-1 -2 -1 -5 -1 -7c0 -37 57 -18 57 -42c0 -7 -4 -14 -13 -14c-3 0 -50 5 -116 5s-112 -5 -115 -5c-9 0 -14 7 -14 14c0 31 87 -1 102 41l102 300c2 7 4 14 4 20c0 8 -2 14 -11 14c-33 0 -63 -60 -79 -97c-5 -12 -15 -17 -24 -17c-8 0 -14 4 -14 12z" fill="currentColor"/>
</g>
<g transform="translate(15.3156, 15.2435)">
<path transform="scale(0.0040, -0.0040)" d="M-50 0c0 28 22 50 50 50s50 -22 50 -50s-22 -50 -50 -50s-50 22 -50 50z" fill="currentColor"/>
</g>
<g transform="translate(16.4898, 8.7935)">
<rect x="-0.0650" y="-2.8100" width="0.1300" height="3.1239" ry="0.0400" fill="currentColor"/>
</g>
<g transform="translate(15.3156, 8.7935)">
<rect x="-0.0650" y="3.1861" width="0.1300" height="2.6239" ry="0.0400" fill="currentColor"/>
</g>
<g transform="translate(76.6090, 8.7935)">
<path stroke-width="0.0800" stroke-linejoin="round" stroke-linecap="round" stroke="currentColor" fill="currentColor" d="M0.6521 -2.1950C2.3029 -3.5815 7.7147 -3.5815 9.3655 -2.1950L9.3655 -2.1950C7.7147 -3.4615 2.3029 -3.4615 0.6521 -2.1950z"/>
</g>
<g transform="translate(18.4384, 10.7935)">
<path transform="scale(0.0040, -0.0040)" d="M218 136c66 0 108 -36 108 -89c0 -89 -113 -183 -218 -183c-66 0 -108 36 -108 89c0 89 113 183 218 183z" fill="currentColor"/>
</g>
<g transform="translate(18.5034, 15.2435)">
<path transform="scale(0.0040, -0.0040)" d="M-50 0c0 28 22 50 50 50s50 -22 50 -50s-22 -50 -50 -50s-50 22 -50 50z" fill="currentColor"/>
</g>
<g transform="translate(18.5034, 8.7935)">
<rect x="-0.0650" y="2.1861" width="0.1300" height="3.6239" ry="0.0400" fill="currentColor"/>
</g>
<g transform="translate(53.3694, 13.7935)">
<polygon stroke-linejoin="round" stroke-linecap="round" stroke-width="0.0800" fill="currentColor" stroke="currentColor" points="9.3034 -0.2000 9.3034 0.2000 0.0400 0.2000 0.0400 -0.2000"/>
</g>
<g transform="translate(53.3694, 14.6035)">
<polygon stroke-linejoin="round" stroke-linecap="round" stroke-width="0.0800" fill="currentColor" stroke="currentColor" points="9.3034 -0.2000 9.3034 0.2000 0.0400 0.2000 0.0400 -0.2000"/>
</g>
<g transform="translate(21.2762, 9.2935)">
<path transform="scale(0.0040, -0.0040)" d="M218 136c66 0 108 -36 108 -89c0 -89 -113 -183 -218 -183c-66 0 -108 36 -108 89c0 89 113 183 218 183z" fill="currentColor"/>
</g>
<g transform="translate(22.5154, 5.3435)">
<path transform="scale(0.0040, -0.0040)" d="M-50 0c0 28 22 50 50 50s50 -22 50 -50s-22 -50 -50 -50s-50 22 -50 50z" fill="currentColor"/>
</g>
<g transform="translate(21.2762, 11.7935)">
<path transform="scale(0.0040, -0.0040)" d="M218 136c66 0 108 -36 108 -89c0 -89 -113 -183 -218 -183c-66 0 -108 36 -108 89c0 89 113 183 218 183z" fill="currentColor"/>
</g>
<g transform="translate(21.3412, 15.2435)">
<path transform="scale(0.0040, -0.0040)" d="M-50 0c0 28 22 50 50 50s50 -22 50 -50s-22 -50 -50 -50s-50 22 -50 50z" fill="currentColor"/>
</g>
<g transform="translate(22.5154, 8.7935)">
<rect x="-0.0650" y="-2.8100" width="0.1300" height="3.1239" ry="0.0400" fill="currentColor"/>
</g>
<g transform="translate(21.3412, 8.7935)">
<rect x="-0.0650" y="3.1861" width="0.1300" height="2.6239" ry="0.0400" fill="currentColor"/>
</g>
<g transform="translate(41.3182, 13.7935)">
<polygon stroke-linejoin="round" stroke-linecap="round" stroke-width="0.0800" fill="currentColor" stroke="currentColor" points="9.3034 -0.2000 9.3034 0.2000 0.0400 0.2000 0.0400 -0.2000"/>
</g>
<g transform="translate(41.3182, 14.6035)">
<polygon stroke-linejoin="round" stroke-linecap="round" stroke-width="0.0800" fill="currentColor" stroke="currentColor" points="9.3034 -0.2000 9.3034 0.2000 0.0400 0.2000 0.0400 -0.2000"/>
</g>
<g transform="translate(24.4640, 10.7935)">
<path transform="scale(0.0040, -0.0040)" d="M218 136c66 0 108 -36 108 -89c0 -89 -113 -183 -218 -183c-66 0 -108 36 -108 89c0 89 113 183 218 183z" fill="currentColor"/>
</g>
<g transform="translate(24.5290, 15.2435)">
<path transform="scale(0.0040, -0.0040)" d="M-50 0c0 28 22 50 50 50s50 -22 50 -50s-22 -50 -50 -50s-50 22 -50 50z" fill="currentColor"/>
</g>
<g transform="translate(24.5290, 8.7935)">
<rect x="-0.0650" y="2.1861" width="0.1300" height="3.6239" ry="0.0400" fill="currentColor"/>
</g>
<g transform="translate(42.4924, 4.9835)">
<polygon stroke-linejoin="round" stroke-linecap="round" stroke-width="0.0800" fill="currentColor" stroke="currentColor" points="6.1156 -0.2000 6.1156 0.2000 0.0400 0.2000 0.0400 -0.2000"/>
</g>
<g transform="translate(27.3018, 8.2935)">
<path transform="scale(0.0040, -0.0040)" d="M218 136c66 0 108 -36 108 -89c0 -89 -113 -183 -218 -183c-66 0 -108 36 -108 89c0 89 113 183 218 183z" fill="currentColor"/>
</g>
<g transform="translate(28.5410, 5.3435)">
<path transform="scale(0.0040, -0.0040)" d="M-50 0c0 28 22 50 50 50s50 -22 50 -50s-22 -50 -50 -50s-50 22 -50 50z" fill="currentColor"/>
</g>
<g transform="translate(27.3018, 11.7935)">
<path transform="scale(0.0040, -0.0040)" d="M218 136c66 0 108 -36 108 -89c0 -89 -113 -183 -218 -183c-66 0 -108 36 -108 89c0 89 113 183 218 183z" fill="currentColor"/>
</g>
<g transform="translate(27.3668, 15.2435)">
<path transform="scale(0.0040, -0.0040)" d="M-50 0c0 28 22 50 50 50s50 -22 50 -50s-22 -50 -50 -50s-50 22 -50 50z" fill="currentColor"/>
</g>
<g transform="translate(28.5410, 8.7935)">
<rect x="-0.0650" y="-2.8100" width="0.1300" height="2.1239" ry="0.0400" fill="currentColor"/>
</g>
<g transform="translate(27.3668, 8.7935)">
<rect x="-0.0650" y="3.1861" width="0.1300" height="2.6239" ry="0.0400" fill="currentColor"/>
</g>
<g transform="translate(27.3018, 13.7935)">
<polygon stroke-linejoin="round" stroke-linecap="round" stroke-width="0.0800" fill="currentColor" stroke="currentColor" points="9.3034 -0.2000 9.3034 0.2000 0.0400 0.2000 0.0400 -0.2000"/>
</g>
<g transform="translate(27.3018, 14.6035)">
<polygon stroke-linejoin="round" stroke-linecap="round" stroke-width="0.0800" fill="currentColor" stroke="currentColor" points="9.3034 -0.2000 9.3034 0.2000 0.0400 0.2000 0.0400 -0.2000"/>
</g>
<g transform="translate(30.4896, 10.7935)">
<path transform="scale(0.0040, -0.0040)" d="M218 136c66 0 108 -36 108 -89c0 -89 -113 -183 -218 -183c-66 0 -108 36 -108 89c0 89 113 183 218 183z" fill="currentColor"/>
</g>
<g transform="translate(30.5546, 15.2435)">
<path transform="scale(0.0040, -0.0040)" d="M-50 0c0 28 22 50 50 50s50 -22 50 -50s-22 -50 -50 -50s-50 22 -50 50z" fill="currentColor"/>
</g>
<g transform="translate(30.5546, 8.7935)">
<rect x="-0.0650" y="2.1861" width="0.1300" height="3.6239" ry="0.0400" fill="currentColor"/>
</g>
<g transform="translate(28.4760, 5.9835)">
<polygon stroke-linejoin="round" stroke-linecap="round" stroke-width="0.0800" fill="currentColor" stroke="currentColor" points="6.1156 -0.2000 6.1156 0.2000 0.0400 0.2000 0.0400 -0.2000"/>
</g>
<g transform="translate(33.3274, 8.2935)">
<path transform="scale(0.0040, -0.0040)" d="M218 136c66 0 108 -36 108 -89c0 -89 -113 -183 -218 -183c-66 0 -108 36 -108 89c0 89 113 183 218 183z" fill="currentColor"/>
</g>
<g transform="translate(34.5666, 5.3435)">
<path transform="scale(0.0040, -0.0040)" d="M-50 0c0 28 22 50 50 50s50 -22 50 -50s-22 -50 -50 -50s-50 22 -50 50z" fill="currentColor"/>
</g>
<g transform="translate(33.3274, 11.7935)">
<path transform="scale(0.0040, -0.0040)" d="M218 136c66 0 108 -36 108 -89c0 -89 -113 -183 -218 -183c-66 0 -108 36 -108 89c0 89 113 183 218 183z" fill="currentColor"/>
</g>
<g transform="translate(33.3924, 15.2435)">
<path transform="scale(0.0040, -0.0040)" d="M-50 0c0 28 22 50 50 50s50 -22 50 -50s-22 -50 -50 -50s-50 22 -50 50z" fill="currentColor"/>
</g>
<g transform="translate(34.5666, 8.7935)">
<rect x="-0.0650" y="-2.8100" width="0.1300" height="2.1239" ry="0.0400" fill="currentColor"/>
</g>
<g transform="translate(33.3924, 8.7935)">
<rect x="-0.0650" y="3.1861" width="0.1300" height="2.6239" ry="0.0400" fill="currentColor"/>
</g>
<g transform="translate(15.2506, 13.7935)">
<polygon stroke-linejoin="round" stroke-linecap="round" stroke-width="0.0800" fill="currentColor" stroke="currentColor" points="9.3034 -0.2000 9.3034 0.2000 0.0400 0.2000 0.0400 -0.2000"/>
</g>
<g transform="translate(15.2506, 14.6035)">
<polygon stroke-linejoin="round" stroke-linecap="round" stroke-width="0.0800" fill="currentColor" stroke="currentColor" points="9.3034 -0.2000 9.3034 0.2000 0.0400 0.2000 0.0400 -0.2000"/>
</g>
<g transform="translate(36.5152, 10.7935)">
<path transform="scale(0.0040, -0.0040)" d="M218 136c66 0 108 -36 108 -89c0 -89 -113 -183 -218 -183c-66 0 -108 36 -108 89c0 89 113 183 218 183z" fill="currentColor"/>
</g>
<g transform="translate(36.5802, 15.2435)">
<path transform="scale(0.0040, -0.0040)" d="M-50 0c0 28 22 50 50 50s50 -22 50 -50s-22 -50 -50 -50s-50 22 -50 50z" fill="currentColor"/>
</g>
<g transform="translate(36.5802, 8.7935)">
<rect x="-0.0650" y="2.1861" width="0.1300" height="3.6239" ry="0.0400" fill="currentColor"/>
</g>
<g transform="translate(16.4248, 5.9835)">
<polygon stroke-linejoin="round" stroke-linecap="round" stroke-width="0.0800" fill="currentColor" stroke="currentColor" points="6.1156 -0.2000 6.1156 0.2000 0.0400 0.2000 0.0400 -0.2000"/>
</g>
<g transform="translate(41.3182, 7.2935)">
<path transform="scale(0.0040, -0.0040)" d="M218 136c66 0 108 -36 108 -89c0 -89 -113 -183 -218 -183c-66 0 -108 36 -108 89c0 89 113 183 218 183z" fill="currentColor"/>
</g>
<g transform="translate(42.5574, 4.3435)">
<path transform="scale(0.0040, -0.0040)" d="M-50 0c0 28 22 50 50 50s50 -22 50 -50s-22 -50 -50 -50s-50 22 -50 50z" fill="currentColor"/>
</g>
<g transform="translate(41.3182, 11.7935)">
<path transform="scale(0.0040, -0.0040)" d="M218 136c66 0 108 -36 108 -89c0 -89 -113 -183 -218 -183c-66 0 -108 36 -108 89c0 89 113 183 218 183z" fill="currentColor"/>
</g>
<g transform="translate(41.3832, 15.2435)">
<path transform="scale(0.0040, -0.0040)" d="M-50 0c0 28 22 50 50 50s50 -22 50 -50s-22 -50 -50 -50s-50 22 -50 50z" fill="currentColor"/>
</g>
<g transform="translate(42.5574, 8.7935)">
<rect x="-0.0650" y="-3.8100" width="0.1300" height="2.1239" ry="0.0400" fill="currentColor"/>
</g>
<g transform="translate(41.3832, 8.7935)">
<rect x="-0.0650" y="3.1861" width="0.1300" height="2.6239" ry="0.0400" fill="currentColor"/>
</g>
<g transform="translate(44.5060, 10.7935)">
<path transform="scale(0.0040, -0.0040)" d="M218 136c66 0 108 -36 108 -89c0 -89 -113 -183 -218 -183c-66 0 -108 36 -108 89c0 89 113 183 218 183z" fill="currentColor"/>
</g>
<g transform="translate(44.5710, 15.2435)">
<path transform="scale(0.0040, -0.0040)" d="M-50 0c0 28 22 50 50 50s50 -22 50 -50s-22 -50 -50 -50s-50 22 -50 50z" fill="currentColor"/>
</g>
<g transform="translate(44.5710, 8.7935)">
<rect x="-0.0650" y="2.1861" width="0.1300" height="3.6239" ry="0.0400" fill="currentColor"/>
</g>
<g transform="translate(47.3438, 7.2935)">
<path transform="scale(0.0040, -0.0040)" d="M218 136c66 0 108 -36 108 -89c0 -89 -113 -183 -218 -183c-66 0 -108 36 -108 89c0 89 113 183 218 183z" fill="currentColor"/>
</g>
<g transform="translate(48.5830, 4.3435)">
<path transform="scale(0.0040, -0.0040)" d="M-50 0c0 28 22 50 50 50s50 -22 50 -50s-22 -50 -50 -50s-50 22 -50 50z" fill="currentColor"/>
</g>
<g transform="translate(47.3438, 11.7935)">
<path transform="scale(0.0040, -0.0040)" d="M218 136c66 0 108 -36 108 -89c0 -89 -113 -183 -218 -183c-66 0 -108 36 -108 89c0 89 113 183 218 183z" fill="currentColor"/>
</g>
<g transform="translate(47.4088, 15.2435)">
<path transform="scale(0.0040, -0.0040)" d="M-50 0c0 28 22 50 50 50s50 -22 50 -50s-22 -50 -50 -50s-50 22 -50 50z" fill="currentColor"/>
</g>
<g transform="translate(48.5830, 8.7935)">
<rect x="-0.0650" y="-3.8100" width="0.1300" height="2.1239" ry="0.0400" fill="currentColor"/>
</g>
<g transform="translate(47.4088, 8.7935)">
<rect x="-0.0650" y="3.1861" width="0.1300" height="2.6239" ry="0.0400" fill="currentColor"/>
</g>
<g transform="translate(67.4662, 10.7935)">
<polygon stroke-linejoin="round" stroke-linecap="round" stroke-width="0.0800" fill="currentColor" stroke="currentColor" points="4.6614 -0.2000 4.6614 0.2000 0.0400 0.2000 0.0400 -0.2000"/>
</g>
<g transform="translate(50.5966, 15.2435)">
<path transform="scale(0.0040, -0.0040)" d="M-50 0c0 28 22 50 50 50s50 -22 50 -50s-22 -50 -50 -50s-50 22 -50 50z" fill="currentColor"/>
</g>
<g transform="translate(50.5966, 8.7935)">
<rect x="-0.0650" y="2.1861" width="0.1300" height="3.6239" ry="0.0400" fill="currentColor"/>
</g>
<g transform="translate(53.3694, 5.7935)">
<path transform="scale(0.0040, -0.0040)" d="M218 136c66 0 108 -36 108 -89c0 -89 -113 -183 -218 -183c-66 0 -108 36 -108 89c0 89 113 183 218 183z" fill="currentColor"/>
</g>
<g transform="translate(53.3694, 2.8077)">
<text font-family="serif" font-style="italic" font-size="2.2000" text-anchor="start" fill="currentColor">
<tspan>ten.</tspan>
</text>
</g>
<g transform="translate(53.3694, 11.7935)">
<path transform="scale(0.0040, -0.0040)" d="M218 136c66 0 108 -36 108 -89c0 -89 -113 -183 -218 -183c-66 0 -108 36 -108 89c0 89 113 183 218 183z" fill="currentColor"/>
</g>
<g transform="translate(53.4344, 15.2435)">
<path transform="scale(0.0040, -0.0040)" d="M-50 0c0 28 22 50 50 50s50 -22 50 -50s-22 -50 -50 -50s-50 22 -50 50z" fill="currentColor"/>
</g>
<g transform="translate(54.6086, 8.7935)">
<rect x="-0.0650" y="-5.5000" width="0.1300" height="2.3139" ry="0.0400" fill="currentColor"/>
</g>
<g transform="translate(53.4344, 8.7935)">
<rect x="-0.0650" y="3.1861" width="0.1300" height="2.6239" ry="0.0400" fill="currentColor"/>
</g>
<g transform="translate(56.5572, 10.7935)">
<path transform="scale(0.0040, -0.0040)" d="M218 136c66 0 108 -36 108 -89c0 -89 -113 -183 -218 -183c-66 0 -108 36 -108 89c0 89 113 183 218 183z" fill="currentColor"/>
</g>
<g transform="translate(56.6222, 15.2435)">
<path transform="scale(0.0040, -0.0040)" d="M-50 0c0 28 22 50 50 50s50 -22 50 -50s-22 -50 -50 -50s-50 22 -50 50z" fill="currentColor"/>
</g>
<g transform="translate(56.6222, 8.7935)">
<rect x="-0.0650" y="2.1861" width="0.1300" height="3.6239" ry="0.0400" fill="currentColor"/>
</g>
<g transform="translate(59.3950, 11.7935)">
<path transform="scale(0.0040, -0.0040)" d="M218 136c66 0 108 -36 108 -89c0 -89 -113 -183 -218 -183c-66 0 -108 36 -108 89c0 89 113 183 218 183z" fill="currentColor"/>
</g>
<g transform="translate(59.4600, 15.2435)">
<path transform="scale(0.0040, -0.0040)" d="M-50 0c0 28 22 50 50 50s50 -22 50 -50s-22 -50 -50 -50s-50 22 -50 50z" fill="currentColor"/>
</g>
<g transform="translate(59.4600, 8.7935)">
<rect x="-0.0650" y="3.1861" width="0.1300" height="2.6239" ry="0.0400" fill="currentColor"/>
</g>
<g transform="translate(62.5828, 10.7935)">
<path transform="scale(0.0040, -0.0040)" d="M218 136c66 0 108 -36 108 -89c0 -89 -113 -183 -218 -183c-66 0 -108 36 -108 89c0 89 113 183 218 183z" fill="currentColor"/>
</g>
<g transform="translate(62.6478, 15.2435)">
<path transform="scale(0.0040, -0.0040)" d="M-50 0c0 28 22 50 50 50s50 -22 50 -50s-22 -50 -50 -50s-50 22 -50 50z" fill="currentColor"/>
</g>
<g transform="translate(62.6478, 8.7935)">
<rect x="-0.0650" y="2.1861" width="0.1300" height="3.6239" ry="0.0400" fill="currentColor"/>
</g>
<g transform="translate(67.4662, 7.7935)">
<path transform="scale(0.0040, -0.0040)" d="M218 136c66 0 108 -36 108 -89c0 -89 -113 -183 -218 -183c-66 0 -108 36 -108 89c0 89 113 183 218 183z" fill="currentColor"/>
</g>
<g transform="translate(68.1183, 6.2935)">
<path transform="scale(0.0040, -0.0040)" d="M-50 0c0 28 22 50 50 50s50 -22 50 -50s-22 -50 -50 -50s-50 22 -50 50z" fill="currentColor"/>
</g>
<g transform="translate(67.5312, 8.7935)">
<rect x="-0.0650" y="-0.8139" width="0.1300" height="2.8139" ry="0.0400" fill="currentColor"/>
</g>
<g transform="translate(72.0376, 7.7935)">
<path transform="scale(0.0040, -0.0040)" d="M218 136c66 0 108 -36 108 -89c0 -89 -113 -183 -218 -183c-66 0 -108 36 -108 89c0 89 113 183 218 183z" fill="currentColor"/>
</g>
<g transform="translate(72.6897, 6.2935)">
<path transform="scale(0.0040, -0.0040)" d="M-50 0c0 28 22 50 50 50s50 -22 50 -50s-22 -50 -50 -50s-50 22 -50 50z" fill="currentColor"/>
</g>
<g transform="translate(72.1026, 8.7935)">
<rect x="-0.0650" y="-0.8139" width="0.1300" height="2.8139" ry="0.0400" fill="currentColor"/>
</g>
<g transform="translate(76.6090, 7.7935)">
<path transform="scale(0.0040, -0.0040)" d="M218 136c66 0 108 -36 108 -89c0 -89 -113 -183 -218 -183c-66 0 -108 36 -108 89c0 89 113 183 218 183z" fill="currentColor"/>
</g>
<g transform="translate(76.6740, 8.7935)">
<rect x="-0.0650" y="-0.8139" width="0.1300" height="2.8139" ry="0.0400" fill="currentColor"/>
</g>
<g transform="translate(79.5468, 7.2935)">
<path transform="scale(0.0040, -0.0040)" d="M218 136c66 0 108 -36 108 -89c0 -89 -113 -183 -218 -183c-66 0 -108 36 -108 89c0 89 113 183 218 183z" fill="currentColor"/>
</g>
<g transform="translate(79.6118, 8.7935)">
<rect x="-0.0650" y="-1.3139" width="0.1300" height="3.3139" ry="0.0400" fill="currentColor"/>
</g>
<g transform="translate(82.4846, 6.7935)">
<path transform="scale(0.0040, -0.0040)" d="M218 136c66 0 108 -36 108 -89c0 -89 -113 -183 -218 -183c-66 0 -108 36 -108 89c0 89 113 183 218 183z" fill="currentColor"/>
</g>
<g transform="translate(82.5496, 8.7935)">
<rect x="-0.0650" y="-1.8139" width="0.1300" height="3.8139" ry="0.0400" fill="currentColor"/>
</g>
<g transform="translate(85.3224, 7.7935)">
<path transform="scale(0.0040, -0.0040)" d="M218 136c66 0 108 -36 108 -89c0 -89 -113 -183 -218 -183c-66 0 -108 36 -108 89c0 89 113 183 218 183z" fill="currentColor"/>
</g>
<g transform="translate(85.3874, 8.7935)">
<rect x="-0.0650" y="-0.8139" width="0.1300" height="2.8139" ry="0.0400" fill="currentColor"/>
</g>
<g transform="translate(90.1201, 7.2935)">
<path transform="scale(0.0040, -0.0040)" d="M218 136c66 0 108 -36 108 -89c0 -89 -113 -183 -218 -183c-66 0 -108 36 -108 89c0 89 113 183 218 183z" fill="currentColor"/>
</g>
<g transform="translate(90.7722, 6.2935)">
<path transform="scale(0.0040, -0.0040)" d="M-50 0c0 28 22 50 50 50s50 -22 50 -50s-22 -50 -50 -50s-50 22 -50 50z" fill="currentColor"/>
</g>
<g transform="translate(90.1851, 8.7935)">
<rect x="-0.0650" y="-1.3139" width="0.1300" height="3.1239" ry="0.0400" fill="currentColor"/>
</g>
<g transform="translate(94.6915, 7.2935)">
<path transform="scale(0.0040, -0.0040)" d="M218 136c66 0 108 -36 108 -89c0 -89 -113 -183 -218 -183c-66 0 -108 36 -108 89c0 89 113 183 218 183z" fill="currentColor"/>
</g>
<g transform="translate(95.3436, 6.2935)">
<path transform="scale(0.0040, -0.0040)" d="M-50 0c0 28 22 50 50 50s50 -22 50 -50s-22 -50 -50 -50s-50 22 -50 50z" fill="currentColor"/>
</g>
<g transform="translate(94.7565, 8.7935)">
<rect x="-0.0650" y="-1.3139" width="0.1300" height="3.1239" ry="0.0400" fill="currentColor"/>
</g>
<g transform="translate(99.2629, 7.2935)">
<path transform="scale(0.0040, -0.0040)" d="M218 136c66 0 108 -36 108 -89c0 -89 -113 -183 -218 -183c-66 0 -108 36 -108 89c0 89 113 183 218 183z" fill="currentColor"/>
</g>
<g transform="translate(99.9150, 6.2935)">
<path transform="scale(0.0040, -0.0040)" d="M-50 0c0 28 22 50 50 50s50 -22 50 -50s-22 -50 -50 -50s-50 22 -50 50z" fill="currentColor"/>
</g>
<g transform="translate(99.3279, 8.7935)">
<rect x="-0.0650" y="-1.3139" width="0.1300" height="3.3139" ry="0.0400" fill="currentColor"/>
</g>
<g transform="translate(99.3929, 10.7535)">
<path transform="scale(0.0040, -0.0040)" d="M0 0h-16v250h16v-250zM0 0v250c97 59 224 148 224 259c0 57 -15 112 -40 163c-3 16 10 27 23 27c7 0 15 -3 20 -11c25 -56 40 -117 40 -179c0 -203 -267 -306 -267 -509z" fill="currentColor"/>
</g>
<g transform="translate(103.8343, 8.7935)">
<path transform="scale(0.0040, -0.0040)" d="M70 205c79 0 46 -98 91 -98c16 0 54 48 61 63c6 12 23 12 28 0l-123 -420c-8 -7 -17 -10 -27 -10s-20 3 -28 10l117 326c-34 -12 -69 -22 -105 -22c-47 0 -87 34 -87 79c0 40 33 72 73 72z" fill="currentColor"/>
</g>
<g transform="translate(90.1201, 10.6035)">
<polygon stroke-linejoin="round" stroke-linecap="round" stroke-width="0.0800" fill="currentColor" stroke="currentColor" points="4.6614 -0.2000 4.6614 0.2000 0.0400 0.2000 0.0400 -0.2000"/>
</g>
</svg>
