<svg xmlns="http://www.w3.org/2000/svg" xmlns:xlink="http://www.w3.org/1999/xlink" version="1.2" width="127.00mm" height="50.80mm" viewBox="0.0000 -0.0000 72.2700 28.9080">
<style type="text/css">
<![CDATA[
tspan { white-space: pre; }
]]>
</style>
<g transform="translate(38.1594, 5.9185)">
<rect x="0.0000" y="-2.0000" width="0.1900" height="4.0000" ry="0.0000" fill="currentColor"/>
</g>
<g transform="translate(3.4143, 7.9185)">
<line stroke-linejoin="round" stroke-linecap="round" stroke-width="0.1000" stroke="currentColor" x1="0.0500" y1="0" x2="65.3913" y2="0"/>
</g>
<g transform="translate(3.4143, 6.9185)">
<line stroke-linejoin="round" stroke-linecap="round" stroke-width="0.1000" stroke="currentColor" x1="0.0500" y1="0" x2="65.3913" y2="0"/>
</g>
<g transform="translate(3.4143, 5.9185)">
<line stroke-linejoin="round" stroke-linecap="round" stroke-width="0.1000" stroke="currentColor" x1="0.0500" y1="0" x2="65.3913" y2="0"/>
</g>
<g transform="translate(3.4143, 4.9185)">
<line stroke-linejoin="round" stroke-linecap="round" stroke-width="0.1000" stroke="currentColor" x1="0.0500" y1="0" x2="65.3913" y2="0"/>
</g>
<g transform="translate(3.4143, 3.9185)">
<line stroke-linejoin="round" stroke-linecap="round" stroke-width="0.1000" stroke="currentColor" x1="0.0500" y1="0" x2="65.3913" y2="0"/>
</g>
<g transform="translate(68.6657, 17.7848)">
<rect x="0.0000" y="-2.0000" width="0.1900" height="4.0000" ry="0.0000" fill="currentColor"/>
</g>
<g transform="translate(3.4143, 20.7848)">
<rect x="57.3977" y="-0.1000" width="1.9563" height="0.2000" ry="0.1000" fill="currentColor"/>
</g>
<g transform="translate(3.4143, 21.7848)">
<rect x="57.3977" y="-0.1000" width="1.9563" height="0.2000" ry="0.1000" fill="currentColor"/>
</g>
<g transform="translate(3.4143, 20.7848)">
<rect x="50.1201" y="-0.1000" width="1.9563" height="0.2000" ry="0.1000" fill="currentColor"/>
</g>
<g transform="translate(3.4143, 21.7848)">
<rect x="50.1201" y="-0.1000" width="1.9563" height="0.2000" ry="0.1000" fill="currentColor"/>
</g>
<g transform="translate(3.4143, 20.7848)">
<rect x="42.8608" y="-0.1000" width="1.9563" height="0.2000" ry="0.1000" fill="currentColor"/>
</g>
<g transform="translate(3.4143, 20.7848)">
<rect x="35.5832" y="-0.1000" width="1.9563" height="0.2000" ry="0.1000" fill="currentColor"/>
</g>
<g transform="translate(3.4143, 19.7848)">
<line stroke-linejoin="round" stroke-linecap="round" stroke-width="0.1000" stroke="currentColor" x1="0.0500" y1="0" x2="65.3913" y2="0"/>
</g>
<g transform="translate(3.4143, 18.7848)">
<line stroke-linejoin="round" stroke-linecap="round" stroke-width="0.1000" stroke="currentColor" x1="0.0500" y1="0" x2="65.3913" y2="0"/>
</g>
<g transform="translate(3.4143, 17.7848)">
<line stroke-linejoin="round" stroke-linecap="round" stroke-width="0.1000" stroke="currentColor" x1="0.0500" y1="0" x2="65.3913" y2="0"/>
</g>
<g transform="translate(3.4143, 16.7848)">
<line stroke-linejoin="round" stroke-linecap="round" stroke-width="0.1000" stroke="currentColor" x1="0.0500" y1="0" x2="65.3913" y2="0"/>
</g>
<g transform="translate(3.4143, 15.7848)">
<line stroke-linejoin="round" stroke-linecap="round" stroke-width="0.1000" stroke="currentColor" x1="0.0500" y1="0" x2="65.3913" y2="0"/>
</g>
<g transform="translate(68.6657, 5.9185)">
<rect x="0.0000" y="-2.0000" width="0.1900" height="4.0000" ry="0.0000" fill="currentColor"/>
</g>
<g transform="translate(3.4143, 2.9185)">
<rect x="10.3257" y="-0.1000" width="1.9563" height="0.2000" ry="0.1000" fill="currentColor"/>
</g>
<g transform="translate(38.1594, 17.7848)">
<rect x="0.0000" y="-2.0000" width="0.1900" height="4.0000" ry="0.0000" fill="currentColor"/>
</g>
<g transform="translate(4.2143, 6.9185)">
<path transform="scale(0.0040, -0.0040)" d="M266 -635h-6c-108 0 -195 88 -195 197c0 58 53 103 112 103c54 0 95 -47 95 -103c0 -52 -43 -95 -95 -95c-11 0 -21 2 -31 6c26 -39 68 -65 117 -65h4zM461 -203c68 24 113 90 113 164c0 90 -66 179 -173 190c19 -89 48 -242 60 -354zM74 28c0 -145 141 -247 264 -247
c1 0 47 0 82 6c-7 64 -29 203 -63 364c-79 -8 -124 -61 -124 -119c0 -44 25 -91 81 -123c5 -5 7 -10 7 -15c0 -11 -10 -22 -22 -22c-15 0 -126 62 -126 187c0 88 58 174 160 197c-14 58 -29 117 -46 175c-107 -121 -213 -243 -213 -403zM250 553c-29 96 -52 170 -52 346
c0 115 55 224 149 292c6 5 14 5 20 0c68 -80 133 -245 133 -358c0 -143 -86 -255 -180 -364c21 -68 39 -138 56 -207c2 0 7 1 13 1c155 0 256 -128 256 -261c0 -113 -74 -212 -180 -246c3 -35 5 -70 5 -105c0 -19 -1 -39 -2 -58c-7 -119 -88 -225 -202 -228l1 43
c93 2 153 92 159 191c1 18 2 37 2 55c0 31 -1 61 -4 92c-5 -1 -44 -8 -89 -8c-193 0 -333 180 -333 374c0 177 131 306 248 441zM428 916c0 34 1 66 -20 129c-99 -48 -162 -149 -162 -259c0 -52 12 -115 36 -194c80 97 146 198 146 324z" fill="currentColor"/>
</g>
<g transform="translate(4.2143, 18.7848)">
<path transform="scale(0.0040, -0.0040)" d="M266 -635h-6c-108 0 -195 88 -195 197c0 58 53 103 112 103c54 0 95 -47 95 -103c0 -52 -43 -95 -95 -95c-11 0 -21 2 -31 6c26 -39 68 -65 117 -65h4zM461 -203c68 24 113 90 113 164c0 90 -66 179 -173 190c19 -89 48 -242 60 -354zM74 28c0 -145 141 -247 264 -247
c1 0 47 0 82 6c-7 64 -29 203 -63 364c-79 -8 -124 -61 -124 -119c0 -44 25 -91 81 -123c5 -5 7 -10 7 -15c0 -11 -10 -22 -22 -22c-15 0 -126 62 -126 187c0 88 58 174 160 197c-14 58 -29 117 -46 175c-107 -121 -213 -243 -213 -403zM250 553c-29 96 -52 170 -52 346
c0 115 55 224 149 292c6 5 14 5 20 0c68 -80 133 -245 133 -358c0 -143 -86 -255 -180 -364c21 -68 39 -138 56 -207c2 0 7 1 13 1c155 0 256 -128 256 -261c0 -113 -74 -212 -180 -246c3 -35 5 -70 5 -105c0 -19 -1 -39 -2 -58c-7 -119 -88 -225 -202 -228l1 43
c93 2 153 92 159 191c1 18 2 37 2 55c0 31 -1 61 -4 92c-5 -1 -44 -8 -89 -8c-193 0 -333 180 -333 374c0 177 131 306 248 441zM428 916c0 34 1 66 -20 129c-99 -48 -162 -149 -162 -259c0 -52 12 -115 36 -194c80 97 146 198 146 324z" fill="currentColor"/>
</g>
<g transform="translate(55.0347, 3.1085)">
<polygon stroke-linejoin="round" stroke-linecap="round" stroke-width="0.0800" fill="currentColor" stroke="currentColor" points="12.2193 0.6100 12.2193 1.0100 0.0400 0.2000 0.0400 -0.2000"/>
</g>
<g transform="translate(55.0347, 3.9185)">
<polygon stroke-linejoin="round" stroke-linecap="round" stroke-width="0.0800" fill="currentColor" stroke="currentColor" points="12.2193 0.6100 12.2193 1.0100 0.0400 0.2000 0.0400 -0.2000"/>
</g>
<g transform="translate(9.2143, 3.9185)">
<path transform="scale(0.0040, -0.0040)" d="M218 136c66 0 108 -36 108 -89c0 -89 -113 -183 -218 -183c-66 0 -108 36 -108 89c0 89 113 183 218 183z" fill="currentColor"/>
</g>
<g transform="translate(9.8664, 2.9735)">
<path transform="scale(0.0040, -0.0040)" d="M-50 0c0 28 22 50 50 50s50 -22 50 -50s-22 -50 -50 -50s-50 22 -50 50z" fill="currentColor"/>
</g>
<g transform="translate(9.2143, 19.2848)">
<path transform="scale(0.0040, -0.0040)" d="M218 136c66 0 108 -36 108 -89c0 -89 -113 -183 -218 -183c-66 0 -108 36 -108 89c0 89 113 183 218 183z" fill="currentColor"/>
</g>
<g transform="translate(9.8664, 20.2848)">
<path transform="scale(0.0040, -0.0040)" d="M-50 0c0 28 22 50 50 50s50 -22 50 -50s-22 -50 -50 -50s-50 22 -50 50z" fill="currentColor"/>
</g>
<g transform="translate(9.2793, 5.9185)">
<rect x="-0.0650" y="-1.8139" width="0.1300" height="2.6249" ry="0.0400" fill="currentColor"/>
</g>
<g transform="translate(10.4535, 17.7848)">
<rect x="-0.0650" y="-1.8100" width="0.1300" height="3.1239" ry="0.0400" fill="currentColor"/>
</g>
<g transform="translate(61.1381, 5.9185)">
<path stroke-width="0.0800" stroke-linejoin="round" stroke-linecap="round" stroke="currentColor" fill="currentColor" d="M0.5643 2.5450C1.4722 3.7964 4.0873 4.3354 5.4161 3.5450L5.4161 3.5450C4.1116 4.2179 1.4965 3.6789 0.5643 2.5450z"/>
</g>
<g transform="translate(11.6402, 3.4185)">
<path transform="scale(0.0040, -0.0040)" d="M218 136c66 0 108 -36 108 -89c0 -89 -113 -183 -218 -183c-66 0 -108 36 -108 89c0 89 113 183 218 183z" fill="currentColor"/>
</g>
<g transform="translate(12.2923, 2.4735)">
<path transform="scale(0.0040, -0.0040)" d="M-50 0c0 28 22 50 50 50s50 -22 50 -50s-22 -50 -50 -50s-50 22 -50 50z" fill="currentColor"/>
</g>
<g transform="translate(11.7052, 5.9185)">
<rect x="-0.0650" y="-2.3139" width="0.1300" height="3.1625" ry="0.0400" fill="currentColor"/>
</g>
<g transform="translate(40.4978, 17.7848)">
<polygon stroke-linejoin="round" stroke-linecap="round" stroke-width="0.0800" fill="currentColor" stroke="currentColor" points="7.3676 -0.2000 7.3676 0.2000 0.0400 0.2000 0.0400 -0.2000"/>
</g>
<g transform="translate(14.0660, 2.9185)">
<path transform="scale(0.0040, -0.0040)" d="M218 136c66 0 108 -36 108 -89c0 -89 -113 -183 -218 -183c-66 0 -108 36 -108 89c0 89 113 183 218 183z" fill="currentColor"/>
</g>
<g transform="translate(14.7182, 1.9735)">
<path transform="scale(0.0040, -0.0040)" d="M-50 0c0 28 22 50 50 50s50 -22 50 -50s-22 -50 -50 -50s-50 22 -50 50z" fill="currentColor"/>
</g>
<g transform="translate(14.1310, 5.9185)">
<rect x="-0.0650" y="-2.8139" width="0.1300" height="3.7001" ry="0.0400" fill="currentColor"/>
</g>
<g transform="translate(39.3236, 8.1085)">
<polygon stroke-linejoin="round" stroke-linecap="round" stroke-width="0.0800" fill="currentColor" stroke="currentColor" points="12.2193 0.3000 12.2193 0.7000 0.0400 0.2000 0.0400 -0.2000"/>
</g>
<g transform="translate(39.3236, 8.9185)">
<polygon stroke-linejoin="round" stroke-linecap="round" stroke-width="0.0800" fill="currentColor" stroke="currentColor" points="12.2193 0.3000 12.2193 0.7000 0.0400 0.2000 0.0400 -0.2000"/>
</g>
<g transform="translate(16.4919, 3.4185)">
<path transform="scale(0.0040, -0.0040)" d="M218 136c66 0 108 -36 108 -89c0 -89 -113 -183 -218 -183c-66 0 -108 36 -108 89c0 89 113 183 218 183z" fill="currentColor"/>
</g>
<g transform="translate(16.4919, 19.2848)">
<path transform="scale(0.0040, -0.0040)" d="M218 136c66 0 108 -36 108 -89c0 -89 -113 -183 -218 -183c-66 0 -108 36 -108 89c0 89 113 183 218 183z" fill="currentColor"/>
</g>
<g transform="translate(17.1440, 20.2848)">
<path transform="scale(0.0040, -0.0040)" d="M-50 0c0 28 22 50 50 50s50 -22 50 -50s-22 -50 -50 -50s-50 22 -50 50z" fill="currentColor"/>
</g>
<g transform="translate(16.5569, 5.9185)">
<rect x="-0.0650" y="-2.3139" width="0.1300" height="3.2377" ry="0.0400" fill="currentColor"/>
</g>
<g transform="translate(17.7311, 17.7848)">
<rect x="-0.0650" y="-1.8100" width="0.1300" height="3.1239" ry="0.0400" fill="currentColor"/>
</g>
<g transform="translate(60.7205, 2.7490)">
<text font-family="serif" font-style="italic" font-size="1.7459" text-anchor="start" fill="currentColor">
<tspan>6</tspan>
</text>
</g>
<g transform="translate(18.9178, 3.9185)">
<path transform="scale(0.0040, -0.0040)" d="M218 136c66 0 108 -36 108 -89c0 -89 -113 -183 -218 -183c-66 0 -108 36 -108 89c0 89 113 183 218 183z" fill="currentColor"/>
</g>
<g transform="translate(18.9828, 5.9185)">
<rect x="-0.0650" y="-1.8139" width="0.1300" height="2.7753" ry="0.0400" fill="currentColor"/>
</g>
<g transform="translate(21.3436, 4.4185)">
<path transform="scale(0.0040, -0.0040)" d="M218 136c66 0 108 -36 108 -89c0 -89 -113 -183 -218 -183c-66 0 -108 36 -108 89c0 89 113 183 218 183z" fill="currentColor"/>
</g>
<g transform="translate(21.4086, 5.9185)">
<rect x="-0.0650" y="-1.3139" width="0.1300" height="2.3129" ry="0.0400" fill="currentColor"/>
</g>
<g transform="translate(46.6012, 5.9185)">
<path stroke-width="0.0800" stroke-linejoin="round" stroke-linecap="round" stroke="currentColor" fill="currentColor" d="M0.7399 -1.5036C2.0686 -2.1779 4.6837 -1.6389 5.5916 -0.5036L5.5916 -0.5036C4.6595 -1.5214 2.0444 -2.0604 0.7399 -1.5036z"/>
</g>
<g transform="translate(23.7695, 4.9185)">
<path transform="scale(0.0040, -0.0040)" d="M218 136c66 0 108 -36 108 -89c0 -89 -113 -183 -218 -183c-66 0 -108 36 -108 89c0 89 113 183 218 183z" fill="currentColor"/>
</g>
<g transform="translate(24.4216, 3.4185)">
<path transform="scale(0.0040, -0.0040)" d="M-50 0c0 28 22 50 50 50s50 -22 50 -50s-22 -50 -50 -50s-50 22 -50 50z" fill="currentColor"/>
</g>
<g transform="translate(23.7695, 20.2848)">
<path transform="scale(0.0040, -0.0040)" d="M218 136c66 0 108 -36 108 -89c0 -89 -113 -183 -218 -183c-66 0 -108 36 -108 89c0 89 113 183 218 183z" fill="currentColor"/>
</g>
<g transform="translate(24.4216, 21.2298)">
<path transform="scale(0.0040, -0.0040)" d="M-50 0c0 28 22 50 50 50s50 -22 50 -50s-22 -50 -50 -50s-50 22 -50 50z" fill="currentColor"/>
</g>
<g transform="translate(23.8345, 5.9185)">
<rect x="-0.0650" y="-0.8139" width="0.1300" height="2.6249" ry="0.0400" fill="currentColor"/>
</g>
<g transform="translate(25.0087, 17.7848)">
<rect x="-0.0650" y="-0.8100" width="0.1300" height="3.1239" ry="0.0400" fill="currentColor"/>
</g>
<g transform="translate(24.9437, 16.9748)">
<polygon stroke-linejoin="round" stroke-linecap="round" stroke-width="0.0800" fill="currentColor" stroke="currentColor" points="7.3676 -0.2000 7.3676 0.2000 0.0400 0.2000 0.0400 -0.2000"/>
</g>
<g transform="translate(26.1953, 4.4185)">
<path transform="scale(0.0040, -0.0040)" d="M218 136c66 0 108 -36 108 -89c0 -89 -113 -183 -218 -183c-66 0 -108 36 -108 89c0 89 113 183 218 183z" fill="currentColor"/>
</g>
<g transform="translate(26.8474, 3.4185)">
<path transform="scale(0.0040, -0.0040)" d="M-50 0c0 28 22 50 50 50s50 -22 50 -50s-22 -50 -50 -50s-50 22 -50 50z" fill="currentColor"/>
</g>
<g transform="translate(26.2603, 5.9185)">
<rect x="-0.0650" y="-1.3139" width="0.1300" height="3.1625" ry="0.0400" fill="currentColor"/>
</g>
<g transform="translate(23.7695, 6.9185)">
<polygon stroke-linejoin="round" stroke-linecap="round" stroke-width="0.0800" fill="currentColor" stroke="currentColor" points="12.2193 -0.0100 12.2193 0.3900 0.0400 0.2000 0.0400 -0.2000"/>
</g>
<g transform="translate(23.7695, 7.7285)">
<polygon stroke-linejoin="round" stroke-linecap="round" stroke-width="0.0800" fill="currentColor" stroke="currentColor" points="12.2193 -0.0100 12.2193 0.3900 0.0400 0.2000 0.0400 -0.2000"/>
</g>
<g transform="translate(28.6212, 3.9185)">
<path transform="scale(0.0040, -0.0040)" d="M218 136c66 0 108 -36 108 -89c0 -89 -113 -183 -218 -183c-66 0 -108 36 -108 89c0 89 113 183 218 183z" fill="currentColor"/>
</g>
<g transform="translate(29.2733, 2.9735)">
<path transform="scale(0.0040, -0.0040)" d="M-50 0c0 28 22 50 50 50s50 -22 50 -50s-22 -50 -50 -50s-50 22 -50 50z" fill="currentColor"/>
</g>
<g transform="translate(28.6862, 5.9185)">
<rect x="-0.0650" y="-1.8139" width="0.1300" height="3.7001" ry="0.0400" fill="currentColor"/>
</g>
<g transform="translate(45.0094, 11.0909)">
<text font-family="serif" font-style="italic" font-size="1.7459" text-anchor="start" fill="currentColor">
<tspan>6</tspan>
</text>
</g>
<g transform="translate(31.0471, 4.4185)">
<path transform="scale(0.0040, -0.0040)" d="M218 136c66 0 108 -36 108 -89c0 -89 -113 -183 -218 -183c-66 0 -108 36 -108 89c0 89 113 183 218 183z" fill="currentColor"/>
</g>
<g transform="translate(31.0471, 20.2848)">
<path transform="scale(0.0040, -0.0040)" d="M218 136c66 0 108 -36 108 -89c0 -89 -113 -183 -218 -183c-66 0 -108 36 -108 89c0 89 113 183 218 183z" fill="currentColor"/>
</g>
<g transform="translate(31.6992, 21.2298)">
<path transform="scale(0.0040, -0.0040)" d="M-50 0c0 28 22 50 50 50s50 -22 50 -50s-22 -50 -50 -50s-50 22 -50 50z" fill="currentColor"/>
</g>
<g transform="translate(31.1121, 5.9185)">
<rect x="-0.0650" y="-1.3139" width="0.1300" height="3.2377" ry="0.0400" fill="currentColor"/>
</g>
<g transform="translate(32.2863, 17.7848)">
<rect x="-0.0650" y="-0.8100" width="0.1300" height="3.1239" ry="0.0400" fill="currentColor"/>
</g>
<g transform="translate(33.4729, 4.9185)">
<path transform="scale(0.0040, -0.0040)" d="M218 136c66 0 108 -36 108 -89c0 -89 -113 -183 -218 -183c-66 0 -108 36 -108 89c0 89 113 183 218 183z" fill="currentColor"/>
</g>
<g transform="translate(33.5379, 5.9185)">
<rect x="-0.0650" y="-0.8139" width="0.1300" height="2.7753" ry="0.0400" fill="currentColor"/>
</g>
<g transform="translate(31.0471, 5.9185)">
<path stroke-width="0.0800" stroke-linejoin="round" stroke-linecap="round" stroke="currentColor" fill="currentColor" d="M0.7399 -2.5450C2.0686 -3.3354 4.6837 -2.7964 5.5916 -1.5450L5.5916 -1.5450C4.6595 -2.6789 2.0444 -3.2179 0.7399 -2.5450z"/>
</g>
<g transform="translate(35.8988, 5.4185)">
<path transform="scale(0.0040, -0.0040)" d="M218 136c66 0 108 -36 108 -89c0 -89 -113 -183 -218 -183c-66 0 -108 36 -108 89c0 89 113 183 218 183z" fill="currentColor"/>
</g>
<g transform="translate(35.9638, 5.9185)">
<rect x="-0.0650" y="-0.3139" width="0.1300" height="2.3129" ry="0.0400" fill="currentColor"/>
</g>
<g transform="translate(10.3885, 15.9748)">
<polygon stroke-linejoin="round" stroke-linecap="round" stroke-width="0.0800" fill="currentColor" stroke="currentColor" points="7.3676 -0.2000 7.3676 0.2000 0.0400 0.2000 0.0400 -0.2000"/>
</g>
<g transform="translate(9.2143, 5.9185)">
<polygon stroke-linejoin="round" stroke-linecap="round" stroke-width="0.0800" fill="currentColor" stroke="currentColor" points="12.2193 -0.0100 12.2193 0.3900 0.0400 0.2000 0.0400 -0.2000"/>
</g>
<g transform="translate(9.2143, 6.7285)">
<polygon stroke-linejoin="round" stroke-linecap="round" stroke-width="0.0800" fill="currentColor" stroke="currentColor" points="12.2193 -0.0100 12.2193 0.3900 0.0400 0.2000 0.0400 -0.2000"/>
</g>
<g transform="translate(39.3236, 5.9185)">
<path transform="scale(0.0040, -0.0040)" d="M218 136c66 0 108 -36 108 -89c0 -89 -113 -183 -218 -183c-66 0 -108 36 -108 89c0 89 113 183 218 183z" fill="currentColor"/>
</g>
<g transform="translate(39.9757, 4.4185)">
<path transform="scale(0.0040, -0.0040)" d="M-50 0c0 28 22 50 50 50s50 -22 50 -50s-22 -50 -50 -50s-50 22 -50 50z" fill="currentColor"/>
</g>
<g transform="translate(39.3236, 21.2848)">
<path transform="scale(0.0040, -0.0040)" d="M218 136c66 0 108 -36 108 -89c0 -89 -113 -183 -218 -183c-66 0 -108 36 -108 89c0 89 113 183 218 183z" fill="currentColor"/>
</g>
<g transform="translate(39.9757, 22.2298)">
<path transform="scale(0.0040, -0.0040)" d="M-50 0c0 28 22 50 50 50s50 -22 50 -50s-22 -50 -50 -50s-50 22 -50 50z" fill="currentColor"/>
</g>
<g transform="translate(39.3886, 5.9185)">
<rect x="-0.0650" y="0.1861" width="0.1300" height="2.8165" ry="0.0400" fill="currentColor"/>
</g>
<g transform="translate(3.3543, 11.8517)">
<rect x="0.0000" y="-7.9831" width="0.1600" height="15.9662" ry="0.0500" fill="currentColor"/>
</g>
<g transform="translate(40.5628, 17.7848)">
<rect x="-0.0650" y="0.0000" width="0.1300" height="3.3139" ry="0.0400" fill="currentColor"/>
</g>
<g transform="translate(29.4553, 9.7443)">
<text font-family="serif" font-style="italic" font-size="1.7459" text-anchor="start" fill="currentColor">
<tspan>6</tspan>
</text>
</g>
<g transform="translate(41.7495, 5.4185)">
<path transform="scale(0.0040, -0.0040)" d="M218 136c66 0 108 -36 108 -89c0 -89 -113 -183 -218 -183c-66 0 -108 36 -108 89c0 89 113 183 218 183z" fill="currentColor"/>
</g>
<g transform="translate(42.4016, 4.4185)">
<path transform="scale(0.0040, -0.0040)" d="M-50 0c0 28 22 50 50 50s50 -22 50 -50s-22 -50 -50 -50s-50 22 -50 50z" fill="currentColor"/>
</g>
<g transform="translate(41.8145, 5.9185)">
<rect x="-0.0650" y="-0.3139" width="0.1300" height="3.4155" ry="0.0400" fill="currentColor"/>
</g>
<g transform="translate(44.1753, 4.9185)">
<path transform="scale(0.0040, -0.0040)" d="M218 136c66 0 108 -36 108 -89c0 -89 -113 -183 -218 -183c-66 0 -108 36 -108 89c0 89 113 183 218 183z" fill="currentColor"/>
</g>
<g transform="translate(44.8274, 3.4185)">
<path transform="scale(0.0040, -0.0040)" d="M-50 0c0 28 22 50 50 50s50 -22 50 -50s-22 -50 -50 -50s-50 22 -50 50z" fill="currentColor"/>
</g>
<g transform="translate(44.2403, 5.9185)">
<rect x="-0.0650" y="-0.8139" width="0.1300" height="4.0144" ry="0.0400" fill="currentColor"/>
</g>
<g transform="translate(16.4919, 5.9185)">
<path stroke-width="0.0800" stroke-linejoin="round" stroke-linecap="round" stroke="currentColor" fill="currentColor" d="M0.7399 -3.5450C2.0686 -4.3354 4.6837 -3.7964 5.5916 -2.5450L5.5916 -2.5450C4.6595 -3.6789 2.0444 -4.2179 0.7399 -3.5450z"/>
</g>
<g transform="translate(46.6012, 5.4185)">
<path transform="scale(0.0040, -0.0040)" d="M218 136c66 0 108 -36 108 -89c0 -89 -113 -183 -218 -183c-66 0 -108 36 -108 89c0 89 113 183 218 183z" fill="currentColor"/>
</g>
<g transform="translate(46.6012, 21.2848)">
<path transform="scale(0.0040, -0.0040)" d="M218 136c66 0 108 -36 108 -89c0 -89 -113 -183 -218 -183c-66 0 -108 36 -108 89c0 89 113 183 218 183z" fill="currentColor"/>
</g>
<g transform="translate(47.2533, 22.2298)">
<path transform="scale(0.0040, -0.0040)" d="M-50 0c0 28 22 50 50 50s50 -22 50 -50s-22 -50 -50 -50s-50 22 -50 50z" fill="currentColor"/>
</g>
<g transform="translate(46.6662, 5.9185)">
<rect x="-0.0650" y="-0.3139" width="0.1300" height="3.6134" ry="0.0400" fill="currentColor"/>
</g>
<g transform="translate(47.8404, 17.7848)">
<rect x="-0.0650" y="0.0000" width="0.1300" height="3.3139" ry="0.0400" fill="currentColor"/>
</g>
<g transform="translate(14.9001, 8.7443)">
<text font-family="serif" font-style="italic" font-size="1.7459" text-anchor="start" fill="currentColor">
<tspan>6</tspan>
</text>
</g>
<g transform="translate(49.0271, 5.9185)">
<path transform="scale(0.0040, -0.0040)" d="M218 136c66 0 108 -36 108 -89c0 -89 -113 -183 -218 -183c-66 0 -108 36 -108 89c0 89 113 183 218 183z" fill="currentColor"/>
</g>
<g transform="translate(49.0921, 5.9185)">
<rect x="-0.0650" y="0.1861" width="0.1300" height="3.2123" ry="0.0400" fill="currentColor"/>
</g>
<g transform="translate(51.4529, 6.4185)">
<path transform="scale(0.0040, -0.0040)" d="M218 136c66 0 108 -36 108 -89c0 -89 -113 -183 -218 -183c-66 0 -108 36 -108 89c0 89 113 183 218 183z" fill="currentColor"/>
</g>
<g transform="translate(51.5179, 5.9185)">
<rect x="-0.0650" y="0.6861" width="0.1300" height="2.8112" ry="0.0400" fill="currentColor"/>
</g>
<g transform="translate(53.8605, 6.9185)">
<path transform="scale(0.0040, -0.0040)" d="M218 136c66 0 108 -36 108 -89c0 -89 -113 -183 -218 -183c-66 0 -108 36 -108 89c0 89 113 183 218 183z" fill="currentColor"/>
</g>
<g transform="translate(54.5126, 8.4185)">
<path transform="scale(0.0040, -0.0040)" d="M-50 0c0 28 22 50 50 50s50 -22 50 -50s-22 -50 -50 -50s-50 22 -50 50z" fill="currentColor"/>
</g>
<g transform="translate(53.8605, 22.2848)">
<path transform="scale(0.0040, -0.0040)" d="M218 136c66 0 108 -36 108 -89c0 -89 -113 -183 -218 -183c-66 0 -108 36 -108 89c0 89 113 183 218 183z" fill="currentColor"/>
</g>
<g transform="translate(54.5126, 23.2298)">
<path transform="scale(0.0040, -0.0040)" d="M-50 0c0 28 22 50 50 50s50 -22 50 -50s-22 -50 -50 -50s-50 22 -50 50z" fill="currentColor"/>
</g>
<g transform="translate(55.0997, 5.9185)">
<rect x="-0.0650" y="-2.8057" width="0.1300" height="3.6196" ry="0.0400" fill="currentColor"/>
</g>
<g transform="translate(55.0997, 17.7848)">
<rect x="-0.0650" y="-0.0000" width="0.1300" height="4.3139" ry="0.0400" fill="currentColor"/>
</g>
<g transform="translate(56.2864, 6.4185)">
<path transform="scale(0.0040, -0.0040)" d="M218 136c66 0 108 -36 108 -89c0 -89 -113 -183 -218 -183c-66 0 -108 36 -108 89c0 89 113 183 218 183z" fill="currentColor"/>
</g>
<g transform="translate(56.9385, 7.4185)">
<path transform="scale(0.0040, -0.0040)" d="M-50 0c0 28 22 50 50 50s50 -22 50 -50s-22 -50 -50 -50s-50 22 -50 50z" fill="currentColor"/>
</g>
<g transform="translate(57.5256, 5.9185)">
<rect x="-0.0650" y="-2.6454" width="0.1300" height="2.9593" ry="0.0400" fill="currentColor"/>
</g>
<g transform="translate(58.7122, 6.9185)">
<path transform="scale(0.0040, -0.0040)" d="M218 136c66 0 108 -36 108 -89c0 -89 -113 -183 -218 -183c-66 0 -108 36 -108 89c0 89 113 183 218 183z" fill="currentColor"/>
</g>
<g transform="translate(59.3643, 8.4185)">
<path transform="scale(0.0040, -0.0040)" d="M-50 0c0 28 22 50 50 50s50 -22 50 -50s-22 -50 -50 -50s-50 22 -50 50z" fill="currentColor"/>
</g>
<g transform="translate(59.9514, 5.9185)">
<rect x="-0.0650" y="-2.4851" width="0.1300" height="3.2990" ry="0.0400" fill="currentColor"/>
</g>
<g transform="translate(61.1381, 7.4185)">
<path transform="scale(0.0040, -0.0040)" d="M218 136c66 0 108 -36 108 -89c0 -89 -113 -183 -218 -183c-66 0 -108 36 -108 89c0 89 113 183 218 183z" fill="currentColor"/>
</g>
<g transform="translate(61.1381, 22.2848)">
<path transform="scale(0.0040, -0.0040)" d="M218 136c66 0 108 -36 108 -89c0 -89 -113 -183 -218 -183c-66 0 -108 36 -108 89c0 89 113 183 218 183z" fill="currentColor"/>
</g>
<g transform="translate(61.7902, 23.2298)">
<path transform="scale(0.0040, -0.0040)" d="M-50 0c0 28 22 50 50 50s50 -22 50 -50s-22 -50 -50 -50s-50 22 -50 50z" fill="currentColor"/>
</g>
<g transform="translate(62.3773, 5.9185)">
<rect x="-0.0650" y="-2.3249" width="0.1300" height="3.6388" ry="0.0400" fill="currentColor"/>
</g>
<g transform="translate(62.3773, 17.7848)">
<rect x="-0.0650" y="-0.0000" width="0.1300" height="4.3139" ry="0.0400" fill="currentColor"/>
</g>
<g transform="translate(63.5640, 7.9185)">
<path transform="scale(0.0040, -0.0040)" d="M218 136c66 0 108 -36 108 -89c0 -89 -113 -183 -218 -183c-66 0 -108 36 -108 89c0 89 113 183 218 183z" fill="currentColor"/>
</g>
<g transform="translate(64.8032, 5.9185)">
<rect x="-0.0650" y="-2.1646" width="0.1300" height="3.9785" ry="0.0400" fill="currentColor"/>
</g>
<g transform="translate(65.9898, 8.4185)">
<path transform="scale(0.0040, -0.0040)" d="M218 136c66 0 108 -36 108 -89c0 -89 -113 -183 -218 -183c-66 0 -108 36 -108 89c0 89 113 183 218 183z" fill="currentColor"/>
</g>
<g transform="translate(67.2290, 5.9185)">
<rect x="-0.0650" y="-2.0043" width="0.1300" height="4.3182" ry="0.0400" fill="currentColor"/>
</g>
<g transform="translate(55.0347, 17.7848)">
<polygon stroke-linejoin="round" stroke-linecap="round" stroke-width="0.0800" fill="currentColor" stroke="currentColor" points="7.3676 -0.2000 7.3676 0.2000 0.0400 0.2000 0.0400 -0.2000"/>
</g>
</svg>
